PathFileType	4	(X/Y/Z)	data\BAA\BAA01\Baseline\Static01.trc
DataRate	CameraRate	NumFrames	NumMarkers	Units	OrigDataRate	OrigDataStartFrame	OrigNumFrames
200.0	200.0	13	12	m	200.0	253	676
Frame#	Time	TAIL			SPL6			RASI			LASI			LHIP			LKNE			LANK			LTOE			RHIP			RKNE			RANK			RTOE			
		X1	Y1	Z1	X2	Y2	Z2	X3	Y3	Z3	X4	Y4	Z4	X5	Y5	Z5	X6	Y6	Z6	X7	Y7	Z7	X8	Y8	Z8	X9	Y9	Z9	X10	Y10	Z10	X11	Y11	Z11	X12	Y12	Z12	

254	1.265	0.0553590202331543	0.09197966766357422	-0.003207070350646973	0.02149552154541016	0.1017669296264648	-0.004239416599273682	0.02156852912902832	0.09042429351806641	-0.02190253829956055	0.02217352294921875	0.09154207611083985	0.0151696195602417	0.04428737640380859	0.0896617431640625	0.01517709064483643	0.0259814624786377	0.07052873992919922	0.03167299270629883	0.06122285079956055	0.05057737350463867	0.02394991493225098	0.05458013534545898	0.03831654739379883	0.0302680606842041	0.04353873062133789	0.08787796020507813	-0.02235230445861816	0.0250576171875	0.06735527801513672	-0.03578230285644531	0.06213275146484375	0.04941125106811523	-0.02718764686584473	0.05315614700317383	0.0384205551147461	-0.03454745101928711	
255	1.27	0.05535985946655274	0.09196945190429688	-0.003207067728042602	0.02149581527709961	0.1017704238891602	-0.004241897583007813	0.02157027626037598	0.09042980194091797	-0.02191504096984863	0.0221774730682373	0.09155719757080079	0.01517631816864014	0.04429795455932618	0.08965654754638672	0.01516839027404785	0.02598196983337402	0.07053094482421875	0.03167034721374512	0.06122039031982422	0.0505754280090332	0.02394707298278809	0.0545793571472168	0.03831747436523437	0.03026959419250488	0.04346199035644532	0.08743120574951171	-0.02182469749450684	0.02506344985961914	0.06733688354492187	-0.03576708602905274	0.06230588150024415	0.0500436897277832	-0.02744731140136719	0.05315373611450196	0.03841810607910157	-0.03455293273925782	
256	1.275	0.05535028457641602	0.09197437286376953	-0.003226388216018677	0.02149932861328125	0.1017701873779297	-0.004244840145111084	0.02156904220581055	0.09043377685546876	-0.02192009162902832	0.02218312072753906	0.09156326293945313	0.01517767524719238	0.04425624084472656	0.08971381378173829	0.01519083118438721	0.02598510360717773	0.0705373764038086	0.03167173767089844	0.06121907806396484	0.05058027267456055	0.02395395469665527	0.05458072280883789	0.03831962585449219	0.03026972389221191	0.04346147155761719	0.08743154907226562	-0.02182547187805176	0.02505889320373535	0.06735134124755859	-0.03578067016601563	0.06232238388061524	0.05003478622436523	-0.02747079277038574	0.05315449142456054	0.03841456985473633	-0.0345452766418457	
257	1.28	0.05535218048095703	0.09198274993896484	-0.003234770774841309	0.02150100517272949	0.1017773895263672	-0.004242427349090576	0.02157525062561035	0.09044076538085938	-0.02192104530334473	0.02218488502502441	0.09157346343994141	0.01518407726287842	0.04426388931274414	0.0899835433959961	0.01535851860046387	0.0259836483001709	0.07054163360595703	0.03167365455627442	0.06121750640869141	0.0505751075744629	0.02394471740722656	0.05457883453369141	0.03831769180297852	0.03026476287841797	0.04346227645874023	0.08743936920166016	-0.02183287239074707	0.02506124305725098	0.06734700775146485	-0.03577255249023437	0.06231958389282227	0.05004193115234375	-0.02747820091247559	0.05315200805664062	0.03842889785766602	-0.03456780624389649	
258	1.285	0.05534198760986328	0.09198087310791016	-0.003244423389434814	0.02150215339660645	0.1017834777832031	-0.004239937782287598	0.02157245635986328	0.09044368743896485	-0.02191768455505371	0.0221823844909668	0.09159122467041016	0.01519527244567871	0.04429953002929687	0.08979783630371094	0.01525066947937012	0.0259835205078125	0.07054133605957032	0.03167560958862305	0.06122061157226562	0.05058063888549805	0.02394590377807617	0.05458124923706055	0.03832352828979492	0.03026932144165039	0.04354460144042969	0.0878805160522461	-0.0223582592010498	0.02505813026428223	0.06735337829589844	-0.03577768707275391	0.06218444061279297	0.05083020782470703	-0.02747536277770996	0.05315218353271484	0.03842292022705078	-0.03455924224853515	
259	1.29	0.05534965896606445	0.09198934173583985	-0.003239511728286743	0.02150157928466797	0.1017841033935547	-0.004235011100769043	0.02157175064086914	0.0904534912109375	-0.02192872619628906	0.02218746185302735	0.09159349060058594	0.01520193576812744	0.04415061950683594	0.08999664306640626	0.01523655033111572	0.02598579216003418	0.0705419692993164	0.03167673301696777	0.06122061538696289	0.05058368682861328	0.02395107650756836	0.05457912063598633	0.03831893157958984	0.0302671127319336	0.04353499603271484	0.0878829345703125	-0.02235160255432129	0.02506212425231934	0.06733978271484375	-0.03576648712158203	0.06229201889038086	0.05004903793334961	-0.02745697402954102	0.05314961242675782	0.03841950225830078	-0.03455405807495118	
260	1.295	0.05533349990844727	0.09198739624023437	-0.003263551235198975	0.02150442886352539	0.1017869262695313	-0.004233508586883545	0.02156704711914063	0.09045687866210937	-0.02192981147766113	0.02219024848937988	0.09160076141357422	0.01521181583404541	0.04427083206176758	0.0894374771118164	0.01490601444244385	0.0259865779876709	0.07054383850097656	0.03168268394470215	0.06121866607666016	0.0505728645324707	0.02394504547119141	0.05458094787597657	0.03831719207763672	0.03026991081237793	0.04346225357055664	0.08744074249267578	-0.02182438850402832	0.02505882072448731	0.06735443115234375	-0.03577867889404297	0.06230078125	0.05003937149047852	-0.02744451522827148	0.05314971542358399	0.03840942001342774	-0.03455128479003906	
261	1.3	0.05535904312133789	0.09188687133789063	-0.003425437688827515	0.02150667190551758	0.1017884063720703	-0.004231937408447265	0.02156922149658203	0.09046453094482422	-0.02192910766601562	0.02225980567932129	0.09214334869384766	0.01598892498016357	0.04427445220947266	0.08988250732421875	0.01525376796722412	0.02598883819580078	0.07054617309570313	0.03168460464477539	0.06121663284301758	0.0505716438293457	0.02394677925109863	0.05457918930053711	0.03831519317626953	0.03026440620422364	0.04345895767211914	0.08743829345703125	-0.02181286811828613	0.02506357765197754	0.06734950256347656	-0.03577186965942383	0.0621363639831543	0.04948475265502929	-0.02723581695556641	0.05315035247802734	0.03841156768798829	-0.03455051803588867	
262	1.305	0.05555109786987305	0.09207815551757813	-0.003073128223419189	0.02150928497314453	0.1017924118041992	-0.004229243755340576	0.02157559204101563	0.09046797180175782	-0.02192645072937012	0.02219689178466797	0.09162511444091798	0.01522512245178223	0.04429825210571289	0.08982849884033203	0.01529262924194336	0.02599077033996582	0.07055536651611329	0.0316912841796875	0.06121875	0.05058007431030274	0.02394996070861816	0.05457548522949219	0.03831543350219727	0.03026658821105957	0.04354635238647461	0.08788278961181641	-0.02235129737854004	0.02506297302246094	0.06734725952148438	-0.03577150344848633	0.06232318496704101	0.05007352828979492	-0.02751687049865723	0.05314915084838867	0.03841365051269531	-0.03456227493286133	
263	1.31	0.05536909484863281	0.0918942642211914	-0.003433894872665405	0.02151543045043946	0.1018020782470703	-0.004227810382843018	0.02158696746826172	0.0904682846069336	-0.02193261528015137	0.02219868469238281	0.09163750457763672	0.01523126411437988	0.04410049819946289	0.08978646087646484	0.01518592643737793	0.02599085426330567	0.07056104278564453	0.03169255256652832	0.061219970703125	0.05058028793334961	0.02395294380187988	0.05458045196533203	0.03831985855102539	0.03026396751403809	0.04347053909301758	0.08744529724121095	-0.02182076263427734	0.02506850624084473	0.06735243225097656	-0.03576044082641602	0.06230120086669922	0.05002580261230469	-0.02744422340393066	0.0531512222290039	0.03841119384765625	-0.03455046463012695	
264	1.315	0.05538435745239258	0.0919864501953125	-0.003198622941970825	0.02151737213134766	0.1018021011352539	-0.004227553844451904	0.02158560943603516	0.0904864730834961	-0.02193973731994629	0.02220456886291504	0.09165072631835938	0.01525189399719238	0.04428934097290039	0.08945689392089844	0.01491763210296631	0.02599411582946777	0.070561767578125	0.03169264030456543	0.06122426986694336	0.05058241653442383	0.02395173454284668	0.05457725906372071	0.03831946182250977	0.03026742553710937	0.04347286987304688	0.08744969177246094	-0.02182195663452148	0.0250699405670166	0.06736634063720703	-0.03577536773681641	0.06231451034545898	0.05005051040649414	-0.02748032760620117	0.0531558723449707	0.03842693710327148	-0.03454694366455078	
265	1.32	0.05538258743286133	0.09198812103271485	-0.003200964212417603	0.02151367378234863	0.1018063659667969	-0.004227174282073975	0.02158277130126953	0.09048771667480469	-0.02194144821166992	0.02220551872253418	0.09166474151611329	0.01525887489318848	0.04435665893554688	0.08992581176757812	0.01538549995422363	0.02599624252319336	0.07056816864013672	0.03169514656066895	0.06122637176513672	0.05058111190795898	0.02394403457641602	0.05458026885986328	0.03832033920288086	0.03026988029479981	0.0434687385559082	0.08745498657226562	-0.02182219886779785	0.02507046127319336	0.06736212921142579	-0.03577185821533203	0.06229489517211914	0.04998472595214844	-0.02740074729919434	0.05315096282958984	0.0384223518371582	-0.03455257415771484	
266	1.325	0.05542058181762696	0.09191001892089844	-0.003363819599151611	0.02151185417175293	0.1018071823120117	-0.004222113609313965	0.02157843399047852	0.09049595642089844	-0.02194147109985351	0.02220251655578613	0.09168030548095703	0.01526579093933106	0.04431755065917969	0.08982196044921875	0.01526333427429199	0.02599575996398926	0.07057006072998047	0.03169422149658203	0.06122286224365234	0.05057792663574219	0.0239508056640625	0.05458134841918946	0.03831990814208985	0.03026756286621094	0.04346696472167969	0.087451171875	-0.02182118988037109	0.02506721496582031	0.06734378814697266	-0.03575928497314453	0.06231724166870117	0.05003707885742188	-0.02744204330444336	0.05314717864990234	0.03841143417358398	-0.03454787063598633	
